<svg width="212" height="68" viewBox="0 0 212 68" fill="none" xmlns="http://www.w3.org/2000/svg">
<path d="M0.589715 1.1581H5.71557V21.9364H20.414V26.4316H0.589715V1.1581ZM33.1397 20.1739L22.0957 1.1581H27.9007L35.6784 15.5331L43.3591 1.1581H49.1641L38.2656 20.1416V26.4316H33.1397V20.1739ZM53.061 1.1581H58.1869L67.3714 10.3749L76.5559 1.1581H81.6817V26.4316H76.5559V8.25669L67.3714 17.1016L58.1869 8.25669V26.4316H53.061V1.1581ZM88.8773 1.1581H110.399V5.65333H94.0032V10.6983H108.524V14.9187H94.0032V21.9526H110.739V26.4316H88.8773V1.1581ZM125.89 13.6413C125.89 11.841 126.23 10.1647 126.909 8.61242C127.588 7.04933 128.569 5.69645 129.852 4.55378C131.145 3.40033 132.719 2.49482 134.573 1.83724C136.438 1.17966 138.546 0.850876 140.896 0.850876C142.955 0.850876 144.841 1.06108 146.555 1.4815C148.28 1.89114 149.881 2.52176 151.358 3.37338L148.997 7.25415C148.555 6.96309 148.043 6.70438 147.461 6.478C146.889 6.25162 146.275 6.06297 145.617 5.91205C144.971 5.75035 144.297 5.62638 143.596 5.54014C142.906 5.4539 142.222 5.41079 141.543 5.41079C139.904 5.41079 138.443 5.6156 137.161 6.02524C135.878 6.4241 134.794 6.99004 133.91 7.72308C133.037 8.44533 132.369 9.31312 131.905 10.3264C131.453 11.329 131.226 12.4339 131.226 13.6413C131.226 14.8917 131.463 16.0398 131.938 17.0854C132.412 18.1311 133.097 19.0366 133.991 19.802C134.897 20.5566 135.996 21.1495 137.29 21.5807C138.594 22.0011 140.066 22.2113 141.704 22.2113C142.448 22.2113 143.187 22.1574 143.92 22.0496C144.653 21.9418 145.359 21.7963 146.038 21.613C146.728 21.419 147.391 21.1926 148.027 20.9339C148.663 20.6644 149.256 20.3733 149.805 20.0607L152.166 23.9415C150.786 24.8254 149.191 25.5207 147.38 26.0274C145.569 26.5233 143.645 26.7712 141.607 26.7712C139.009 26.7712 136.729 26.437 134.767 25.7687C132.806 25.0895 131.167 24.1625 129.852 22.9875C128.537 21.8017 127.545 20.4111 126.877 18.8156C126.219 17.2094 125.89 15.4846 125.89 13.6413ZM166.444 1.1581H171.877L184.102 26.4316H178.717L176.696 22.179H161.933L159.976 26.4316H154.576L166.444 1.1581ZM174.675 17.9586L169.209 6.478L163.889 17.9586H174.675ZM195.776 20.1739L184.732 1.1581H190.537L198.315 15.5331L205.996 1.1581H211.801L200.902 20.1416V26.4316H195.776V20.1739ZM0.605885 42.1581H5.73174L14.9162 51.3749L24.1007 42.1581H29.2266V67.4316H24.1007V49.2567L14.9162 58.1016L5.73174 49.2567V67.4316H0.605885V42.1581ZM36.4222 42.1581H57.9443V46.6533H41.548V51.6983H56.0686V55.9187H41.548V62.9526H58.2839V67.4316H36.4222V42.1581ZM63.9757 42.1581H73.241C75.9468 42.1581 78.2968 42.4492 80.2911 43.0313C82.2854 43.6134 83.9347 44.4488 85.2391 45.5376C86.5542 46.6156 87.5298 47.9308 88.1658 49.4831C88.8126 51.0246 89.136 52.7602 89.136 54.6898C89.136 56.5224 88.818 58.2202 88.182 59.7833C87.546 61.3356 86.5758 62.6831 85.2714 63.8258C83.9671 64.9576 82.3177 65.847 80.3234 66.4938C78.3292 67.1298 75.9791 67.4478 73.2734 67.4478L63.9757 67.4316V42.1581ZM74.5023 63.0011C76.033 63.0011 77.3751 62.8071 78.5286 62.419C79.682 62.0201 80.6414 61.4596 81.4068 60.7373C82.183 60.0151 82.7651 59.1419 83.1532 58.1178C83.5412 57.0937 83.7353 55.951 83.7353 54.6898C83.7353 53.4501 83.5412 52.3344 83.1532 51.3426C82.7651 50.3401 82.183 49.4938 81.4068 48.8039C80.6414 48.1032 79.682 47.5642 78.5286 47.1869C77.3751 46.8096 76.033 46.621 74.5023 46.621H69.1015V63.0011H74.5023ZM93.6313 42.1581H98.7895V67.4316H93.6313V42.1581ZM113.957 42.1581H119.39L131.614 67.4316H126.23L124.209 63.179H109.445L107.489 67.4316H102.088L113.957 42.1581ZM122.187 58.9586L116.722 47.478L111.402 58.9586H122.187Z" fill="white"/>
</svg>
