<svg width="217" height="17" viewBox="0 0 217 17" fill="none" xmlns="http://www.w3.org/2000/svg">
<path d="M0.690918 0.560242H3.78662V13.1091H12.6636V15.8239H0.690918V0.560242ZM20.3491 12.0446L13.6792 0.560242H17.1851L21.8823 9.24188L26.521 0.560242H30.0269L23.4448 12.0251V15.8239H20.3491V12.0446ZM32.3804 0.560242H35.4761L41.0229 6.12665L46.5698 0.560242H49.6655V15.8239H46.5698V4.84735L41.0229 10.1891L35.4761 4.84735V15.8239H32.3804V0.560242ZM54.0112 0.560242H67.0093V3.27509H57.1069V6.32196H65.8765V8.87079H57.1069V13.1188H67.2144V15.8239H54.0112V0.560242ZM76.3647 8.0993C76.3647 7.01206 76.5698 5.99969 76.98 5.06219C77.3901 4.11818 77.9826 3.30113 78.7573 2.61102C79.5386 1.91441 80.4891 1.36753 81.6089 0.970398C82.7352 0.573263 84.008 0.374695 85.4272 0.374695C86.6707 0.374695 87.8101 0.501648 88.8452 0.755554C89.8869 1.00295 90.8537 1.38381 91.7456 1.89813L90.3198 4.24188C90.0529 4.0661 89.7437 3.90985 89.3921 3.77313C89.047 3.63641 88.6759 3.52248 88.2788 3.43134C87.8882 3.33368 87.4813 3.25881 87.0581 3.20673C86.6414 3.15464 86.228 3.1286 85.8179 3.1286C84.8283 3.1286 83.9461 3.2523 83.1714 3.49969C82.3966 3.74058 81.7424 4.08238 81.2085 4.52509C80.6812 4.96128 80.2775 5.48537 79.9976 6.09735C79.7241 6.70282 79.5874 7.37014 79.5874 8.0993C79.5874 8.85451 79.7306 9.54787 80.0171 10.1794C80.3035 10.8109 80.717 11.3578 81.2573 11.82C81.8042 12.2757 82.4683 12.6338 83.2495 12.8942C84.0373 13.1481 84.9259 13.2751 85.9155 13.2751C86.3647 13.2751 86.8107 13.2425 87.2534 13.1774C87.6961 13.1123 88.1226 13.0244 88.5327 12.9138C88.9494 12.7966 89.3498 12.6599 89.7339 12.5036C90.118 12.3408 90.4761 12.1651 90.8081 11.9763L92.2339 14.32C91.4006 14.8539 90.437 15.2738 89.3433 15.5798C88.2495 15.8793 87.0874 16.029 85.8569 16.029C84.2879 16.029 82.911 15.8272 81.7261 15.4235C80.5412 15.0134 79.5516 14.4535 78.7573 13.7438C77.9631 13.0277 77.3641 12.1878 76.9604 11.2243C76.5633 10.2543 76.3647 9.21259 76.3647 8.0993ZM100.857 0.560242H104.138L111.521 15.8239H108.269L107.048 13.2556H98.1323L96.9507 15.8239H93.689L100.857 0.560242ZM105.828 10.7067L102.527 3.77313L99.314 10.7067H105.828ZM118.572 12.0446L111.902 0.560242H115.408L120.105 9.24188L124.744 0.560242H128.25L121.667 12.0251V15.8239H118.572V12.0446ZM137.244 0.560242H140.339L145.886 6.12665L151.433 0.560242H154.529V15.8239H151.433V4.84735L145.886 10.1891L140.339 4.84735V15.8239H137.244V0.560242ZM158.875 0.560242H171.873V3.27509H161.97V6.32196H170.74V8.87079H161.97V13.1188H172.078V15.8239H158.875V0.560242ZM175.515 0.560242H181.111C182.745 0.560242 184.164 0.736023 185.369 1.08759C186.573 1.43915 187.569 1.94371 188.357 2.60126C189.151 3.2523 189.74 4.04657 190.125 4.98407C190.515 5.91506 190.71 6.96324 190.71 8.1286C190.71 9.23537 190.518 10.2608 190.134 11.2048C189.75 12.1423 189.164 12.9561 188.376 13.6462C187.589 14.3298 186.593 14.8669 185.388 15.2575C184.184 15.6416 182.764 15.8337 181.13 15.8337L175.515 15.8239V0.560242ZM181.873 13.1481C182.797 13.1481 183.608 13.0309 184.304 12.7966C185.001 12.5557 185.58 12.2171 186.042 11.7809C186.511 11.3447 186.863 10.8174 187.097 10.1989C187.332 9.58042 187.449 8.89032 187.449 8.1286C187.449 7.3799 187.332 6.70608 187.097 6.10712C186.863 5.50165 186.511 4.99058 186.042 4.57391C185.58 4.15074 185.001 3.82522 184.304 3.59735C183.608 3.36949 182.797 3.25555 181.873 3.25555H178.611V13.1481H181.873ZM193.425 0.560242H196.541V15.8239H193.425V0.560242ZM205.701 0.560242H208.982L216.365 15.8239H213.113L211.892 13.2556H202.976L201.794 15.8239H198.533L205.701 0.560242ZM210.671 10.7067L207.371 3.77313L204.158 10.7067H210.671Z" fill="white"/>
</svg>
